<svg id="Layer_1" data-name="Layer 1" xmlns="http://www.w3.org/2000/svg" width="159.9988mm" height="159.9988mm" viewBox="0 0 453.54 453.54"><defs><style>.cls-1,.cls-2{fill:#fff;}.cls-1{stroke:#fff;}.cls-1,.cls-3{stroke-miterlimit:10;}.cls-3{fill:#e7323b;stroke:#e7323b;stroke-width:3.5974px;}</style></defs><title>logoRed</title><path class="cls-1" d="M396.4395,411.7334H57.1006a15.6149,15.6149,0,0,1-15.5972-15.5977V57.0693A15.6149,15.6149,0,0,1,57.1006,41.4717H396.4395a15.6153,15.6153,0,0,1,15.5977,15.5977V396.1357A15.6153,15.6153,0,0,1,396.4395,411.7334ZM57.1006,48.667a8.4116,8.4116,0,0,0-8.4023,8.4023V396.1357a8.4119,8.4119,0,0,0,8.4023,8.4023H396.4395a8.4122,8.4122,0,0,0,8.4023-8.4023V57.0693a8.4119,8.4119,0,0,0-8.4023-8.4023Z"/><path class="cls-1" d="M277.2715,86.188a3.4087,3.4087,0,0,1-3.123-2.0405c-5.4277-12.38-2.0479-22.4033,10.0469-29.7915a3.4074,3.4074,0,1,1,3.5527,5.8154c-9.2158,5.63-11.416,11.9824-7.3574,21.24a3.41,3.41,0,0,1-3.1191,4.7769Z"/><path class="cls-1" d="M309.3457,115.3608a3.3951,3.3951,0,0,1-2.0879-.7158c-4.3506-3.3774-9.1562-6.4189-13.8037-9.36l-2.5879-1.6421a3.4073,3.4073,0,1,1,3.6621-5.7471l2.5713,1.63c4.7832,3.0273,9.7285,6.1577,14.3379,9.7354a3.4081,3.4081,0,0,1-2.0918,6.1Z"/><path class="cls-1" d="M292.6943,104.1768a3.3933,3.3933,0,0,1-2.0605-.6958c-6.459-4.9141-14.1865-11.5967-16.6279-19.7212a3.4078,3.4078,0,1,1,6.5273-1.9609c1.8975,6.3145,9.0283,12.3032,14.2275,16.2583a3.4077,3.4077,0,0,1-2.0664,6.12Z"/><path class="cls-1" d="M316.4326,69.1772a3.4081,3.4081,0,0,1-3.0332-1.8491c-.7012-1.269-6.501-7.7529-13.7988-9.4937a13.9838,13.9838,0,0,0-11.7051,2.2417,3.4075,3.4075,0,1,1-3.8477-5.625A21.0106,21.0106,0,0,1,301.5264,51.29c9.2715,2.3569,16.4893,10.0967,17.9375,12.9272a3.4091,3.4091,0,0,1-3.0312,4.96Z"/><path class="cls-1" d="M328.4287,110.0313a3.4085,3.4085,0,0,1-3.2422-2.3643,143.1821,143.1821,0,0,1-3.751-15.4878c-1.8-8.8647-3.499-17.2378-7.9316-24.6636a3.4075,3.4075,0,1,1,5.8516-3.4932c5.0293,8.4238,6.9248,17.7666,8.7588,26.8013a138.3116,138.3116,0,0,0,3.5586,14.7544,3.41,3.41,0,0,1-3.2441,4.4531Z"/><path class="cls-1" d="M280.1709,91.8574a3.3965,3.3965,0,0,1-2.3818-.9707c-3.4941-3.4146-11.1934-5.1235-16.2646-2.2954a3.4078,3.4078,0,0,1-3.3184-5.9531c7.9609-4.4365,19.0146-1.8364,24.3467,3.3745a3.4075,3.4075,0,0,1-2.3818,5.8447Z"/><path class="cls-1" d="M248.2627,106.0327a3.4075,3.4075,0,0,1-3.4072-3.4077c0-4.2148,1.3262-14.6133,13.6162-20.12a3.4078,3.4078,0,0,1,2.7871,6.22c-8.3428,3.7378-9.5889,10.3135-9.5889,13.9A3.4075,3.4075,0,0,1,248.2627,106.0327Z"/><path class="cls-1" d="M261.3174,123.0444a3.4028,3.4028,0,0,1-1.0566-.1685c-10.5107-3.4243-15.4053-9.8589-15.4053-20.251a3.4072,3.4072,0,1,1,6.8145,0c0,7.4971,2.9,11.2295,10.7021,13.7705a3.4084,3.4084,0,0,1-1.0547,6.6489Z"/><path class="cls-1" d="M306.2773,127.2959a3.3982,3.3982,0,0,1-2.4062-.9946c-1.2539-1.251-5.582-3.1553-20.5039-1.8535a3.4074,3.4074,0,1,1-.5918-6.7891c14.042-1.2285,22.0313-.0488,25.9082,3.8164a3.408,3.408,0,0,1-2.4062,5.8208Z"/><path class="cls-1" d="M284.5234,124.4609c-.0391,0-.0781,0-.1172-.002-2.1064-.0713-4.3311-.1064-6.5518-.1416-7.12-.1138-13.8467-.2207-17.5937-1.4419a3.4074,3.4074,0,1,1,2.1113-6.4795c2.7715.9028,9.582,1.0112,15.5918,1.1069,2.2607.0361,4.5273.0723,6.6729.1445a3.4077,3.4077,0,0,1-.1133,6.8135Z"/><path class="cls-1" d="M322.2715,109.4844a1.704,1.704,0,0,1-1.5352-.9629c-1.6006-3.3115-3.0146-6.8784-4.3828-10.3281-4.0957-10.3247-8.33-21-18.1807-26.6968a1.7037,1.7037,0,0,1,1.7051-2.95c10.876,6.2891,15.333,17.5249,19.6426,28.3906,1.4082,3.5493,2.7373,6.9014,4.2842,10.1021a1.7043,1.7043,0,0,1-1.5332,2.4453Z"/><path class="cls-1" d="M316.8115,111.4595a1.7032,1.7032,0,0,1-1.5049-.9009C308.3613,97.56,301.6748,88.97,293.627,82.7065a1.7042,1.7042,0,0,1,2.0938-2.6895c8.4424,6.5713,15.41,15.4956,22.5918,28.9351a1.7044,1.7044,0,0,1-1.501,2.5073Z"/><path class="cls-1" d="M305.88,121.082a1.7,1.7,0,0,1-.5654-.0967c-3.1006-1.09-6.1406-2.48-9.0811-3.8247-6.32-2.89-12.2891-5.6191-18.9961-5.7441a1.7038,1.7038,0,0,1,.0313-3.4072h.0332c7.415.1387,13.9893,3.145,20.3486,6.0522,2.8711,1.313,5.84,2.67,8.7949,3.709a1.7041,1.7041,0,0,1-.5654,3.3115Z"/><path class="cls-1" d="M307.749,116.3066a1.6976,1.6976,0,0,1-1.06-.37c-7.6309-6.0654-17.8662-13.0254-29.3887-13.0254-.0107,0-.0234,0-.0312,0a1.7038,1.7038,0,1,1,.0313-3.4072c12.5771,0,23.4443,7.355,31.51,13.7646a1.7043,1.7043,0,0,1-1.0615,3.0381Z"/><path class="cls-1" d="M310.7979,132.3794a3.388,3.388,0,0,1-1.6729-.4414,12.1854,12.1854,0,0,1-6.1934-11.3047,3.4077,3.4077,0,0,1,6.8105.2578,5.3513,5.3513,0,0,0,2.7344,5.1133,3.408,3.408,0,0,1-1.6787,6.375Z"/><path class="cls-1" d="M306.93,120.4746a3.4113,3.4113,0,0,1-3.29-4.3032,31.734,31.734,0,0,1,1.9346-5.168,3.408,3.408,0,0,1,6.17,2.8965,24.9031,24.9031,0,0,0-1.5283,4.0605A3.4093,3.4093,0,0,1,306.93,120.4746Z"/><path class="cls-1" d="M315.94,148.4756a3.41,3.41,0,0,1-3.1533-4.6978c1.2842-3.1436-.9072-10.41-3.5537-11.7808a3.4077,3.4077,0,0,1,3.1348-6.0518c6.1689,3.1958,9.1143,14.5693,6.7275,20.4106A3.4088,3.4088,0,0,1,315.94,148.4756Z"/><path class="cls-1" d="M319.3652,163.7236a3.3879,3.3879,0,0,1-1.5068-.3535c-3.24-1.6016-8.26-9.1353-5.1777-19.2925a3.4075,3.4075,0,1,1,6.5215,1.9785c-1.97,6.4912,1.0693,10.6621,1.8037,11.271a3.4081,3.4081,0,0,1-1.6406,6.3965Zm1.6758-6.3691h0Zm-.1631-.0937c.0244.0117.0479.0239.0713.0361C320.9248,157.2832,320.9,157.2715,320.8779,157.2607Z"/><path class="cls-1" d="M319.5918,189.1816a4.0123,4.0123,0,0,1-1.52-.3,3.408,3.408,0,0,1-.2031-6.2119c1.791-4.13,2.1055-17.8887-.3105-19.4673a3.4352,3.4352,0,0,1-1.0332-4.7065,3.381,3.381,0,0,1,4.6523-1.0684c7.21,4.5176,5.0918,23.8042,2.49,28.8633C322.5654,188.4365,320.9922,189.1816,319.5918,189.1816Z"/><path class="cls-1" d="M301.3779,221.3291a3.4075,3.4075,0,0,1-3.4072-3.4077c0-8.0088,1.5068-18.6562,14.5439-18.6562a3.4077,3.4077,0,0,1,0,6.8154c-4.2285,0-7.7295.8911-7.7295,11.8408A3.4075,3.4075,0,0,1,301.3779,221.3291Z"/><path class="cls-1" d="M285.9922,238.0889a18.2756,18.2756,0,0,1-5.3047-.81,3.4076,3.4076,0,0,1,1.9727-6.5234,10.2143,10.2143,0,0,0,8.9561-1.2324,15.2664,15.2664,0,0,0,6.375-10.2886,3.4081,3.4081,0,0,1,6.7734.7617,21.9054,21.9054,0,0,1-9.3994,15.2183A16.8484,16.8484,0,0,1,285.9922,238.0889Z"/><path class="cls-1" d="M267.1133,239.9668a3.4081,3.4081,0,0,1-1.76-6.3281c4.5107-2.7139,12.9463-6.6182,18.7549-2.2646a3.4076,3.4076,0,1,1-4.0879,5.4531c-1.7979-1.3457-6.2793-.2812-11.1533,2.6514A3.389,3.389,0,0,1,267.1133,239.9668Z"/><path class="cls-1" d="M258.2441,242.3281c-3.5332,0-7.1426-.88-9.7246-3.2676a3.4076,3.4076,0,0,1,4.627-5.0039c2.8428,2.63,10.2324.96,11.6523-.001a3.4071,3.4071,0,0,1,4.707,4.9258C267.7979,240.6709,263.0928,242.3281,258.2441,242.3281Zm6.5137-8.2344c-.0156.0146-.0293.0283-.043.042C264.7285,234.1211,264.7432,234.1074,264.7578,234.0938Z"/><path class="cls-1" d="M236.2676,239.9668a3.4083,3.4083,0,0,1-2.6377-5.5635,11.6857,11.6857,0,0,1,8.7344-4.1016c4.0977-.1689,8.48,1.3818,10.9111,3.8809a3.4074,3.4074,0,1,1-4.8848,4.752,8.28,8.28,0,0,0-5.73-1.8232,5.0352,5.0352,0,0,0-3.751,1.6025A3.4038,3.4038,0,0,1,236.2676,239.9668Z"/><path class="cls-1" d="M230.7861,241.65a15.3251,15.3251,0,0,1-10.5464-4.292,3.4079,3.4079,0,0,1,4.6445-4.9883c3.8276,3.5664,8.2417,2.36,9.0249,1.7324a3.3873,3.3873,0,0,1,4.8018.0439,3.4265,3.4265,0,0,1-.0459,4.835C237.19,240.4395,234.2373,241.65,230.7861,241.65Z"/><path class="cls-1" d="M222.562,238.2715a3.3946,3.3946,0,0,1-2.396-.9844c-2.542-2.5137-9.0718-4.0166-14.2607-3.2842a3.4076,3.4076,0,0,1-.9541-6.748c6.2622-.8857,15.4009.6313,20.0068,5.1865a3.407,3.407,0,0,1-2.396,5.83Z"/><path class="cls-1" d="M187.4351,245.8975a3.4089,3.4089,0,0,1-3.0225-4.9766c4.8652-9.3867,16.0347-12.7832,19.3418-13.6a3.4078,3.4078,0,0,1,1.6348,6.6167c-2.6045.6426-11.3779,3.2744-14.9258,10.12A3.408,3.408,0,0,1,187.4351,245.8975Z"/><path class="cls-1" d="M180.4487,252.8516a10.8666,10.8666,0,0,1-2.3022-.2559,3.408,3.408,0,0,1,1.4492-6.66c.9131.1992,3.0518.6641,4.5786-4.4258a3.4075,3.4075,0,1,1,6.5273,1.959C188.896,249.4854,185.15,252.8516,180.4487,252.8516Z"/><path class="cls-1" d="M165.1616,258.6045a3.4079,3.4079,0,0,1-3.0859-4.8477c2.396-5.1406,5.8-7.2578,8.2339-8.1289a13.3119,13.3119,0,0,1,10.0347.5654,3.4072,3.4072,0,1,1-2.9463,6.1445,6.4723,6.4723,0,0,0-4.791-.293c-1.7632.6309-3.228,2.1758-4.3545,4.5908A3.4077,3.4077,0,0,1,165.1616,258.6045Z"/><path class="cls-1" d="M165.2378,268.36a3.4066,3.4066,0,0,1-2.999-1.7852c-1.9312-3.5645-2.6587-9.0391.0679-13.2354a3.4075,3.4075,0,1,1,5.7148,3.7129c-.9756,1.502-.8833,4.2588.2095,6.2764a3.4087,3.4087,0,0,1-2.9932,5.0313Z"/><path class="cls-1" d="M149.7427,271.3105a3.407,3.407,0,0,1-2.439-5.7861c4.3521-4.4629,12.1958-5.709,18.2441-2.8994a3.4079,3.4079,0,0,1-2.8711,6.1816c-3.4365-1.5977-8.144-.9346-10.4941,1.4756A3.398,3.398,0,0,1,149.7427,271.3105Z"/><path class="cls-1" d="M148.8887,284.0186a3.4081,3.4081,0,0,1-3.105-2,16.2889,16.2889,0,0,1,1.1445-16.0352,3.4073,3.4073,0,1,1,5.63,3.84c-2.6875,3.94-1.1143,8.1758-.5684,9.3789a3.4084,3.4084,0,0,1-3.1011,4.8164Z"/><path class="cls-1" d="M148.8882,295.8779a3.4075,3.4075,0,0,1-2.2515-5.9668c2.72-2.3906.9092-5.5205-.4116-7.1729a3.4077,3.4077,0,1,1,5.3232-4.2559c4.6157,5.7744,4.4541,12.27-.4116,16.5479A3.3968,3.3968,0,0,1,148.8882,295.8779Z"/><path class="cls-1" d="M154.89,319.668c-4.1206,0-8.0757-2.9551-10.5674-8.01-3.2793-6.6523-3.5654-16.2334,2.2329-21.6729a3.4078,3.4078,0,0,1,4.6631,4.9707c-3.3447,3.1377-2.9,9.3945-.7827,13.6885,1.354,2.7461,3.2573,4.4258,4.7534,4.1836a3.4072,3.4072,0,1,1,1.1025,6.7246A8.6093,8.6093,0,0,1,154.89,319.668Z"/><path class="cls-1" d="M176.0786,331.6387c-11.4819,0-17.6748-3.8281-23.3037-13.77a3.4075,3.4075,0,0,1,5.9307-3.3574c4.7085,8.3154,8.6885,11.0986,21.6274,10.1406a3.4077,3.4077,0,0,1,.5029,6.7969C179.1538,331.5732,177.5713,331.6387,176.0786,331.6387Z"/><path class="cls-1" d="M196.3525,342.085a23.9723,23.9723,0,0,1-5.5586-.6807c-6.9746-1.666-14.207-6.6475-13.6045-13.6455a3.4076,3.4076,0,1,1,6.79.584c-.2061,2.3916,3.5615,5.2773,8.3979,6.4326,4.4932,1.0732,9.6768.5332,11.1377-3.0918a3.4075,3.4075,0,0,1,6.3213,2.5469C207.8208,339.2314,202.7017,342.085,196.3525,342.085Z"/><path class="cls-1" d="M217.5566,347.59a15.0683,15.0683,0,0,1-7.1646-1.7236,14.5194,14.5194,0,0,1-7.4946-11.5166,3.4077,3.4077,0,0,1,6.7754-.7383,7.8079,7.8079,0,0,0,3.9268,6.2412c2.9536,1.5771,7.0977,1.125,11.666-1.2666a3.408,3.408,0,1,1,3.16,6.0391A23.6729,23.6729,0,0,1,217.5566,347.59Z"/><path class="cls-1" d="M250.1514,353.9209a48.8788,48.8788,0,0,1-18.1475-3.5791c-5.2349-2.2441-8.1069-5.0342-8.5366-8.29a3.4076,3.4076,0,0,1,6.7485-.9492c.29.6768,2.6221,2.6211,7.87,4.1953,7.6533,2.2979,17.9756,2.75,22.8926-.8311a3.4078,3.4078,0,1,1,4.0117,5.51C261.07,352.83,255.6709,353.9209,250.1514,353.9209ZM230.207,341.0791"/><path class="cls-1" d="M288.9014,345.9121a3.4072,3.4072,0,0,1-2.5518-5.665,26.0813,26.0813,0,0,0,4.9248-8.9863,3.4079,3.4079,0,0,1,6.5,2.0508,32.5948,32.5948,0,0,1-6.3193,11.4512A3.4015,3.4015,0,0,1,288.9014,345.9121Z"/><path class="cls-1" d="M300.6455,339.4951c-3.4365,0-6.5723-1.8418-8.9316-5.2822a3.4076,3.4076,0,1,1,5.6211-3.8535c1.1553,1.6836,2.4063,2.4561,3.6875,2.2969,1.9873-.2461,4.793-2.6553,6.583-7.4844a3.4078,3.4078,0,0,1,6.3906,2.3691c-2.4873,6.709-7.1377,11.2607-12.1367,11.8789A10.0246,10.0246,0,0,1,300.6455,339.4951Z"/><path class="cls-1" d="M322.4316,332.7a24.595,24.595,0,0,1-13.4854-3.4844,3.4081,3.4081,0,1,1,3.709-5.7187c9.2188,5.9814,28.4658.0762,39.9717-8.9639,6.1592-4.8379,9.252-9.9395,8.0723-13.3135a3.4078,3.4078,0,1,1,6.4336-2.25c2.2373,6.3994-1.5156,14.0254-10.2959,20.9229C347.4473,327.27,333.9121,332.7,322.4316,332.7Z"/><path class="cls-1" d="M365.2783,303.5361c-.4951,0-1.0029-.0127-1.5273-.0381a3.4073,3.4073,0,1,1,.33-6.8066c4.8564.2363,8.2813-.88,10.1494-3.3174,2.3408-3.0537,2.0049-7.7656,1.0049-10.873a3.4077,3.4077,0,1,1,6.4883-2.0859c1.5752,4.8994,1.8555,11.9658-2.084,17.1055C377.4961,300.3164,373.2871,303.5361,365.2783,303.5361Z"/><path class="cls-1" d="M378.4824,284.8662a3.4081,3.4081,0,0,1-2.0459-6.1357c3.3779-2.53,5.291-6.5146,5.6865-11.8428.8018-10.8164-4.8213-23.1992-6.5615-25.0732a3.4078,3.4078,0,0,1,3.9551-5.5469c3.4375,2.2979,9.1719,15.7881,9.4844,27.44.2422,9.0605-2.6895,16.1416-8.4785,20.4775A3.3926,3.3926,0,0,1,378.4824,284.8662Zm-2.7559-42.9346.0029.002Zm-.209-.1641Z"/><path class="cls-1" d="M378.79,242.5693a14.85,14.85,0,0,1-1.5166-.0791,3.4076,3.4076,0,1,1,.6992-6.7793,5.2711,5.2711,0,0,0,4.6074-1.502c1.3809-1.5508,1.7959-4.13,1.1406-7.0752a3.4077,3.4077,0,0,1,6.6523-1.4814c1.1377,5.1094.1533,9.88-2.7012,13.0879A11.5979,11.5979,0,0,1,378.79,242.5693Z"/><path class="cls-1" d="M387.0449,229.8018a3.4085,3.4085,0,0,1-3.2793-2.4907,26.6824,26.6824,0,0,1,.0527-14.7144,3.4073,3.4073,0,1,1,6.457,2.1787,20.0282,20.0282,0,0,0,.0527,10.7,3.4105,3.4105,0,0,1-3.2832,4.3267Z"/><path class="cls-1" d="M387.0488,217.0947a3.4119,3.4119,0,0,1-3.2891-4.3076c1.8047-6.5977.4941-13.0723-1.7324-16.0586-.75-1.0054-1.3232-1.2349-1.4814-1.2383a3.4076,3.4076,0,1,1,.15-6.8135,8.8925,8.8925,0,0,1,6.7939,3.9771c3.2207,4.3179,5.3486,12.7739,2.8438,21.9312A3.409,3.409,0,0,1,387.0488,217.0947Z"/><path class="cls-1" d="M380.6191,195.4922a3.405,3.405,0,0,1-1.3281-.271c-6.6016-2.7983-6.4111-8.894-4.0937-17.186a3.408,3.408,0,0,1,6.5645,1.835c-2.249,8.043-.84,8.64.1895,9.0757a3.4085,3.4085,0,0,1-1.332,6.5464Z"/><path class="cls-1" d="M378.4824,182.3608a3.41,3.41,0,0,1-3.3184-4.1948c.0049-.03.9492-6.7568-4.04-11.0254a3.408,3.408,0,0,1,4.4316-5.1787c7.2168,6.1758,6.7578,15.5933,6.2393,17.7773A3.4083,3.4083,0,0,1,378.4824,182.3608Z"/><path class="cls-1" d="M373.3379,167.96a3.41,3.41,0,0,1-3.1-4.82,7.7591,7.7591,0,0,0,.0352-6.2993c-1.2871-2.937-4.4463-5.3027-9.1348-6.8418a3.408,3.408,0,0,1,2.127-6.4756c8.3135,2.73,11.7939,7.26,13.25,10.58a14.5571,14.5571,0,0,1-.0742,11.8589A3.4082,3.4082,0,0,1,373.3379,167.96Z"/><path class="cls-1" d="M362.1992,150.1694a3.3912,3.3912,0,0,1-1.6074-.4053c-5.4678-2.9321-10.293-6.9385-8.5967-16.3164a3.4079,3.4079,0,0,1,6.707,1.2129c-.8428,4.6572.16,6.4424,5.11,9.0977a3.4079,3.4079,0,0,1-1.6133,6.4111Z"/><path class="cls-1" d="M355.3525,137.4624a3.4113,3.4113,0,0,1-3.3779-3.8853c.124-.875.292-3.0659-.8145-4.5093a5.6155,5.6155,0,0,0-3.9355-1.7974,3.4076,3.4076,0,1,1,.8281-6.7646c3.7568.46,6.6211,1.9453,8.5156,4.4146,2.5811,3.3662,2.458,7.4663,2.1543,9.6108A3.4083,3.4083,0,0,1,355.3525,137.4624Z"/><path class="cls-1" d="M347.6387,127.2959c-5.4658,0-10.2607-5.5508-10.2607-11.8789a3.4072,3.4072,0,1,1,6.8145,0c0,2.9756,2.2363,5.0635,3.4463,5.0635a3.4077,3.4077,0,0,1,0,6.8154Z"/><path class="cls-1" d="M340.7813,118.8252a3.4088,3.4088,0,0,1-3.3613-2.8721,5.8115,5.8115,0,0,0-2.7871-4.3389c-2.9189-1.76-7.7139-1.6206-10.7451-.5942a3.4075,3.4075,0,0,1-2.1855-6.4551c4.6045-1.56,11.4766-1.7886,16.4531,1.2153a12.58,12.58,0,0,1,5.9951,9.1006,3.4077,3.4077,0,0,1-2.8291,3.9014A3.4488,3.4488,0,0,1,340.7813,118.8252Z"/><path class="cls-1" d="M300.71,308.333a19.1485,19.1485,0,0,1-6.4746-1.1572,3.4073,3.4073,0,1,1,2.291-6.418c7.0732,2.5264,13.29-2.0029,16.7549-7.0791a3.4075,3.4075,0,1,1,5.6289,3.8418C315.0342,303.1992,308.5557,308.333,300.71,308.333Z"/><path class="cls-1" d="M320.8848,299.1c-1.3125,0-2.6387-.0352-3.959-.0693l-.916-.0244a3.4073,3.4073,0,1,1,.1719-6.8125l.9229.0234c10.251.27,13.5479.0322,14.7588-6.7021a3.4072,3.4072,0,0,1,6.707,1.2051C336.5859,297.7578,329.02,299.1,320.8848,299.1Z"/><path class="cls-1" d="M313.37,206.0806a3.4074,3.4074,0,0,1-2.5449-5.6724c1.0557-1.187,1.2129-3.7012,1.3652-6.1328.251-3.9907.5928-9.4561,5.8477-11.6831a3.408,3.408,0,0,1,2.66,6.2754c-1.24.5254-1.4814,2.2646-1.7061,5.834-.2139,3.418-.457,7.292-3.0752,10.2358A3.3991,3.3991,0,0,1,313.37,206.0806Z"/><rect class="cls-1" x="199.269" y="355.0469" width="6.0508" height="55.1064"/><rect class="cls-1" x="198.6973" y="45.0693" width="7.1943" height="188.9492"/><rect class="cls-1" x="48.0034" y="291.0801" width="97.377" height="7.1953"/><path class="cls-1" d="M301.8125,407.3535a2.9506,2.9506,0,0,1-2.4648-1.3223l-58.6631-88.5762a2.9518,2.9518,0,0,1,.8691-4.1172l16.2539-10.4121a2.9539,2.9539,0,0,1,3.9736.7393l72.626,98.95a2.9531,2.9531,0,0,1-4.7617,3.4941l-70.9863-96.7158-11.3945,7.3L304.2715,402.77a2.9531,2.9531,0,0,1-2.459,4.584Z"/><path class="cls-2" d="M70.1479,348.8369q0,.3047-.335.3047-.5786,0-4.582-.2285-.0916,3.8511-.0913,5.374,0,1.7959.1445,5.4043t.1445,5.4043c0,.1924-.0454.3145-.1367.3652a1.8127,1.8127,0,0,1-.4263.0762,21.9135,21.9135,0,0,1-2.68.1221,20.988,20.988,0,0,1-2.7554-.1221.4469.4469,0,0,1-.4263-.4717q0-1.7959.1523-5.39.1523-3.5918.1523-5.3887,0-1.188-.1221-5.2979-3.0447.3047-4.856.3047-.2439,0-.2437-.1523A8.8773,8.8773,0,0,1,54.3,347.97q.2439-1.0664.2744-1.2939.0454-.7163.1064-1.4316.1062-1.1411.3652-1.1416c.0205,0,.0913.0049.2134.0156a61.5049,61.5049,0,0,0,7.292.3193q1.37,0,5.0542-.2891,1.9783-.1523,1.9941-.1523a.8312.8312,0,0,1,.35.0381c.03.0254.0508.124.061.2969q0,.41-.0308,1.1416-.0308.8071-.03,1.1416a9.0876,9.0876,0,0,0,.0991,1.1191A9.14,9.14,0,0,1,70.1479,348.8369Z"/><path class="cls-2" d="M87.3657,360.8027a19.8278,19.8278,0,0,1-.2588,2.4053,9.1752,9.1752,0,0,1-.4873,2.2686.5664.5664,0,0,1-.502.2891,3.7652,3.7652,0,0,1-.457-.0459q-1.1111-.1523-6.4849-.1523-1.1726,0-3.4863-.0146t-3.4712-.0156q-.5017,0-.502-.4414,0-1.7051.19-5.123t.19-5.1221q0-1.7358-.1826-6.4707-.0454-1.2173-.1675-3.6377l-.0151-.2139c-.0205-.2324.1064-.35.38-.35q1.1265,0,3.3872.0605t3.3872.0615q1.1111,0,3.3491-.0615t3.3491-.0605q.7917,0,.9136.5938.0762.35.2358,2.124t.16,2.1533q0,.3208-.3047.32c-.061,0-.1675-.0049-.32-.0156q-4.05-.334-7.2769-.335-.8064,0-.9893.3809a4.7738,4.7738,0,0,0-.0762,1.1719,2.1456,2.1456,0,0,0,.3047,1.37,1.3051,1.3051,0,0,0,.9893.2891c.1016,0,.2993-.0068.5938-.0225s.5381-.0225.731-.0225q1.9182,0,3.8818-.1064.167-.0161.8374-.0762a7.3408,7.3408,0,0,1,.8218-.0615q.3655,0,.3652.3506a22.0089,22.0089,0,0,0-.2739,2.3291q-.1216,1.2173-.1216,2.4355,0,.3047-.4414.3047l-1.37-.1523q-.8679-.0908-3.958-.0918H78.6733q-.6248,0-.731.3047-.0154.0762-.0151.9443a4.467,4.467,0,0,0,.1523,1.4912q.2585.5786,1.9487.6855H82.25q.8071,0,2.3979-.1445t2.3823-.1445Q87.3655,360.2549,87.3657,360.8027Z"/><path class="cls-2" d="M112.0884,365.0654q0,.4717-.4414.4717h-5.3892q-.4417,0-.4414-.5332,0-1.5366.1143-4.6123t.1143-4.6123q0-.4424-.1372-.4727a43.7333,43.7333,0,0,0-2.04,4.7041q-1.0957,2.71-2.1919,5.4043a.6408.6408,0,0,1-.3809.4111,6.0588,6.0588,0,0,1-.6089.0156q-.7917,0-.9438-.3047-.8218-1.6743-2.1616-4.8711-1.4312-3.3809-2.1465-4.8867a.476.476,0,0,0-.1372-.168.726.726,0,0,0-.1064.4414q0,1.4927.0762,4.4756t.0762,4.4756q0,.5332-.4263.5332h-5.085c-.2031,0-.3271-.0332-.3726-.0986a.63.63,0,0,1-.0688-.3428q0-1.66.16-4.9854t.16-4.9863q0-1.7651-.1523-6.6221-.0154-1.2627-.1367-3.76l-.0151-.2588q-.0154-.3047.6392-.3047.8372,0,2.5117-.0537t2.5122-.0527q.167,0,.4717.64l4.4453,9.7578q.4717.99.7915.9893.1677,0,.7153-1.1416,1.5381-3.1963,4.5522-9.6367.2585-.5933.563-.5937.4417,0,1.332.0459t1.3472.0459q.3809,0,1.1646-.0762t1.165-.0762q.4563,0,.4565.3652,0,1.7974-.1294,5.3662t-.1294,5.3662q0,1.66.1367,4.9785T112.0884,365.0654Z"/><path class="cls-2" d="M133.1577,352.3232a8.92,8.92,0,0,1-1.9336,5.9678,7.1132,7.1132,0,0,1-5.7085,2.42q-.6094,0-1.8345-.0684t-1.8345-.0684q-.6548,0-.6548.5635,0,.7.1372,2.0859t.1372,2.07q0,.35-.32.35-.9287,0-2.7861-.0527t-2.7856-.0537a.39.39,0,0,1-.4414-.4414q0-1.69.0532-5.0771t.0532-5.0771q0-4.78-.4111-10.0469l-.0151-.2139c-.0205-.1924.1318-.31.4565-.35q1.188-.1523,5.2368-.1523,2.39,0,4.5825.0605a8.3269,8.3269,0,0,1,5.8154,2.2686A7.8075,7.8075,0,0,1,133.1577,352.3232Zm-6.0742.2432q0-3.5464-3.4556-3.5469-2.436,0-2.5576.2744a24.7457,24.7457,0,0,0-.1064,3.5166q0,.4717.0381,1.3926t.0381,1.3936q0,.3047,2.74.3037Q127.0835,355.9,127.0835,352.5664Z"/><path class="cls-2" d="M153.42,358.0625q0,3.8818-.9287,5.2979-1.7051,2.5884-8.51,2.5879a18.2625,18.2625,0,0,1-4.7344-.4717,4.7629,4.7629,0,0,1-3.44-2.9082,12.0236,12.0236,0,0,1-.396-3.7451q0-.624.0459-1.8564t.0454-1.8428q0-1.7651-.1675-5.2979t-.1675-5.2822q0-.3647.32-.3652.9287,0,2.8086.0762t2.8091.0762q.38,0,.38.335,0,2.01-.1294,6.0205t-.1294,6.0215a6.9908,6.9908,0,0,0,.5024,3.2266q.6694,1.1426,2.8013,1.1416,3.12,0,3.1206-3.0293,0-2.2061-.1064-6.6221t-.1064-6.6221q0-.4717.38-.4717.8979,0,2.71-.0762t2.7095-.0762q.4417,0,.4414.3652,0,1.75-.1445,5.2822t-.1445,5.2979q0,.4878.0151,1.47T153.42,358.0625Z"/><path class="cls-2" d="M174.5654,365.3848q0,.1069-.3047.1523a26.38,26.38,0,0,1-2.9072.0918,25.9179,25.9179,0,0,1-2.71-.0918,1.5448,1.5448,0,0,1-.3809-.0762.6762.6762,0,0,1-.2129-.3047q-.2285-.5933-.67-1.7656-.5933-1.522-1.8569-4.4912a1.3441,1.3441,0,0,0-1.2637-.6543q.4563.0308-1.5684.03-.2278,0-.228.7764,0,1.0356.19,3.0908t.19,3.09q0,.2593-.1367.3047c-.1426.01-.2842.0205-.4263.03q-.8987.0615-2.8013.0615a20.1987,20.1987,0,0,1-2.6187-.0918q-.4417-.0908-.4414-.4717,0-1.6743.16-5.0547t.16-5.0693q0-6.4395-.2891-10.0469l-.0151-.2139c-.01-.1719.1494-.2891.4795-.35s1.88-.1221,4.65-.1826q2.8162-.0615,4.4912-.0615a9.5122,9.5122,0,0,1,5.6631,1.5684,5.8748,5.8748,0,0,1,2.4814,5.1,8.2394,8.2394,0,0,1-.64,3.5469,7.2215,7.2215,0,0,1-2.3594,2.5732c-.2339.1621-.35.3145-.35.457q0-.0161,1.8569,3.82A27.67,27.67,0,0,1,174.5654,365.3848Zm-6.394-13.6553a2.7312,2.7312,0,0,0-1.2178-2.5732A6.0975,6.0975,0,0,0,164,348.6084q-1.4465,0-1.5376.4414a26.3969,26.3969,0,0,0-.0913,2.9844q0,.35.0151,1.0352c.01.4561.0151.7969.0151,1.02q0,.0762.4873.1523a13.28,13.28,0,0,0,1.9487.1367Q168.1711,354.3779,168.1714,351.7295Z"/><path class="cls-2" d="M196.3657,365.1563c0,.1826-.1274.31-.3809.3809a17.47,17.47,0,0,1-2.8315.1221,19.2344,19.2344,0,0,1-2.8013-.1221.82.82,0,0,1-.6543-.6846,5.8191,5.8191,0,0,0-.8071-2.3447,33.5173,33.5173,0,0,0-4.08-.1064,12.0012,12.0012,0,0,0-2.7554.1367,4.1734,4.1734,0,0,0-.5786,1.6289q-.2893,1.2642-.7,1.37a25.5972,25.5972,0,0,1-3.4712.1221q-2.3291,0-2.3291-.4414,0-.3955,3.44-9.7285,3.7295-10.0928,4.0493-11.0977.1831-.5786.4263-.5781.4116,0,1.2715.0762t1.2861.0762q.4109,0,1.21-.0537t1.1948-.0527q.2893,0,.5327.502.7463,1.5981,4.354,10.9609Q196.3655,364.7456,196.3657,365.1563Zm-10.7935-13.8682q-.32.6694-1.0811,2.9072a15.8261,15.8261,0,0,0-.8223,2.7861q0,.2739.9136.3047.4717.0308,1.5527.03,1.0049,0,1.1113-.2432a.59.59,0,0,0,.0308-.2139,14.8526,14.8526,0,0,0-.7007-2.7705A21.6136,21.6136,0,0,0,185.5723,351.2881Z"/><rect class="cls-1" x="198.6968" y="338.2588" width="7.1953" height="55.1064"/><line class="cls-1" x1="396.5509" y1="403.1811" x2="342.345" y2="329.3271"/><path class="cls-1" d="M396.5527,406.1338a2.9474,2.9474,0,0,1-2.3828-1.2061l-54.2061-73.8535a2.9531,2.9531,0,1,1,4.7617-3.4941l54.2061,73.8535a2.9531,2.9531,0,0,1-2.3789,4.7Z"/><line class="cls-1" x1="319.5337" y1="332.1673" x2="367.6265" y2="404.7831"/><path class="cls-1" d="M367.63,407.7363a2.9506,2.9506,0,0,1-2.4648-1.3223l-48.0928-72.6162a2.9531,2.9531,0,1,1,4.9238-3.2617l48.0928,72.6162a2.9531,2.9531,0,0,1-2.459,4.584Z"/><line class="cls-2" x1="317.8325" y1="329.5988" x2="319.5337" y2="332.1673"/><path class="cls-2" d="M319.5371,335.12a2.9506,2.9506,0,0,1-2.4648-1.3223l-1.7012-2.5684a2.9531,2.9531,0,0,1,4.9238-3.2617l1.7012,2.5684a2.9531,2.9531,0,0,1-2.459,4.584Z"/><path class="cls-3" d="M148.7744,115.688q-20.365-6.167-28.6685-24.1143-4.823,17.9539-28.937,24.918l-1.8755-6.6982q24.1143-6.16,26.2573-24.1143h-21.97v-5.09h22.5063V67.1919H90.9014v-5.09h58.1411v5.09H122.25v13.397h23.8457v5.09h-23.042q6.9639,17.9539,28.1328,23.0425Z"/><path class="cls-3" d="M95.188,167.9878l5.3589,2.68a59.1961,59.1961,0,0,1-7.502,21.4346l-5.0908-3.751Q93.31,180.583,95.188,167.9878ZM111.8,143.07a59.1022,59.1022,0,0,0,10.45,1.6074l-1.6079,5.8945a79.9919,79.9919,0,0,1-19.8267-4.5547l2.1431-5.6265A59.64,59.64,0,0,0,111.8,143.07Zm9.9136,30.0083a16.2185,16.2185,0,0,1,3.2153,8.8418q.2637,7.7747-3.2153,12.0571a9.226,9.226,0,0,1-6.6982,3.4829q-6.7.5339-13.1289-4.019l3.2153-5.6265q5.89,3.7551,10.1816,2.9473,4.2825-.8035,3.2148-9.6455-.54-5.3569-6.43-8.8418-7.7739-4.5527-8.5737-9.11a17,17,0,0,1,.5356-5.3584,12.8388,12.8388,0,0,1,1.34-3.751l5.3584,2.1436a29.6374,29.6374,0,0,0-1.6074,5.894q.2637,2.4119,6.43,5.627A19.4533,19.4533,0,0,1,121.7134,173.0786Zm16.6118-32.9556a8.21,8.21,0,0,1,2.1436,5.6265,6.414,6.414,0,0,1-2.6792,5.6265,9.2,9.2,0,0,1-4.5552,1.876,7.1762,7.1762,0,0,1-5.8945-2.1436,7.9547,7.9547,0,0,1-2.1431-6.1626,7.5315,7.5315,0,0,1,2.1431-4.8228,6.6641,6.6641,0,0,1,4.8228-2.1436A7.542,7.542,0,0,1,138.3252,140.123Zm-7.502,26.7935q6.16,7.5037,9.1094,19.0229l-5.3584,3.751a52.375,52.375,0,0,0-8.0381-19.291Zm4.8228-18.4873a2.679,2.679,0,0,0,1.0718-2.68,4.3167,4.3167,0,0,0-1.0718-2.6792,3.8823,3.8823,0,0,0-2.6792-1.34,6.358,6.358,0,0,0-2.9473,1.34,4.2887,4.2887,0,0,0-1.0718,2.6792,2.87,2.87,0,0,0,1.3394,2.68,4.2743,4.2743,0,0,0,2.68,1.0713A3.1342,3.1342,0,0,0,135.646,148.4292Z"/><path class="cls-3" d="M126.8042,250.2959a13.9343,13.9343,0,0,1,3.4829,9.11q.5339,10.4487-5.8945,15.0039-5.896,4.2832-20.63,5.626L102.69,274.41q13.3945-.8042,18.2192-4.5547,3.479-2.4126,3.751-8.3066.2637-5.0859-1.6074-7.502-2.6814-3.2153-8.0381-3.4824-4.2891,0-9.3774,4.8223a48.1482,48.1482,0,0,0-7.77,10.4492l-5.3589-.8037q1.3374-8.5708,2.6792-28.4l5.627.5361q-.5405,6.7-1.6079,17.6826a39.1783,39.1783,0,0,1,6.9663-6.43,20.6745,20.6745,0,0,1,10.1816-2.68Q123.0486,246.0107,126.8042,250.2959Zm-27.061-28.4a97.908,97.908,0,0,1,21.7021,4.5547l-2.1431,5.6265q-6.7009-2.4111-20.8989-5.0908Z"/></svg>